<svg xmlns="http://www.w3.org/2000/svg" viewBox="0 0 1000 460"><defs><filter id="boxShadow" width="140%" height="140%" x="-20%" y="-20%"><feGaussianBlur in="SourceAlpha" stdDeviation="1"/><feOffset dx="1" dy="1"/><feComponentTransfer><feFuncA slope=".2" type="linear"/></feComponentTransfer><feMerge><feMergeNode/><feMergeNode in="SourceGraphic"/></feMerge></filter><marker id="arrow" markerHeight="7" markerWidth="10" orient="auto" refX="9" refY="3.5"><polygon fill="#666" points="0 0 10 3.5 0 7"/></marker></defs><rect width="280" height="420" x="20" y="20" fill="#f0f4f8" stroke="#666" stroke-width="1"/><text x="160" y="45" font-size="14" font-weight="bold" text-anchor="middle">Server Components</text><rect width="240" height="60" x="40" y="70" fill="#fff" stroke="#333" filter="url(#boxShadow)" rx="4"/><text x="160" y="105" font-size="12" text-anchor="middle">User Client</text><rect width="240" height="60" x="40" y="160" fill="#fff" stroke="#333" filter="url(#boxShadow)" rx="4"/><text x="160" y="195" font-size="12" text-anchor="middle">FastAPI Server</text><rect width="240" height="60" x="40" y="250" fill="#fff" stroke="#333" filter="url(#boxShadow)" rx="4"/><text x="160" y="285" font-size="12" text-anchor="middle">TokenizerManager</text><rect width="240" height="60" x="40" y="340" fill="#fff" stroke="#333" filter="url(#boxShadow)" rx="4"/><text x="160" y="375" font-size="12" text-anchor="middle">DetokenizerManager</text><rect width="280" height="420" x="320" y="20" fill="#f0f7f0" stroke="#666" stroke-width="1"/><text x="460" y="45" font-size="14" font-weight="bold" text-anchor="middle">Scheduler</text><rect width="240" height="60" x="340" y="70" fill="#fff" stroke="#333" filter="url(#boxShadow)" rx="4"/><text x="460" y="105" font-size="12" text-anchor="middle">process_input_requests</text><rect width="240" height="60" x="340" y="160" fill="#fff" stroke="#333" filter="url(#boxShadow)" rx="4"/><text x="460" y="195" font-size="12" text-anchor="middle">get_next_batch_to_run</text><rect width="240" height="60" x="340" y="250" fill="#fff" stroke="#333" filter="url(#boxShadow)" rx="4"/><text x="460" y="285" font-size="12" text-anchor="middle">run_batch</text><rect width="240" height="60" x="340" y="340" fill="#fff" stroke="#333" filter="url(#boxShadow)" rx="4"/><text x="460" y="375" font-size="12" text-anchor="middle">process_batch_result</text><rect width="280" height="420" x="620" y="20" fill="#f4f0f4" stroke="#666" stroke-width="1"/><text x="760" y="45" font-size="14" font-weight="bold" text-anchor="middle">Model Components</text><rect width="240" height="60" x="640" y="70" fill="#fff" stroke="#333" filter="url(#boxShadow)" rx="4"/><text x="760" y="105" font-size="12" text-anchor="middle">TpModelWorker</text><rect width="240" height="60" x="640" y="160" fill="#fff" stroke="#333" filter="url(#boxShadow)" rx="4"/><text x="760" y="195" font-size="12" text-anchor="middle">ModelRunner</text><rect width="240" height="60" x="640" y="250" fill="#fff" stroke="#333" filter="url(#boxShadow)" rx="4"/><text x="760" y="285" font-size="12" text-anchor="middle">Model</text><rect width="240" height="60" x="640" y="340" fill="#fff" stroke="#333" filter="url(#boxShadow)" rx="4"/><text x="760" y="375" font-size="12" text-anchor="middle">AttentionBackend</text><path stroke="#666" stroke-width="1.5" marker-end="url(#arrow)" d="M80 160 L80 130"/><text x="90" y="150" fill="#666" font-size="20">14</text><path stroke="#666" stroke-width="1.5" marker-end="url(#arrow)" d="M240 130 L240 160"/><text x="250" y="150" fill="#666" font-size="20">1</text><path stroke="#666" stroke-width="1.5" marker-end="url(#arrow)" d="M80 250 L80 220"/><text x="90" y="240" fill="#666" font-size="20">13</text><path stroke="#666" stroke-width="1.5" marker-end="url(#arrow)" d="M240 220 L240 250"/><text x="250" y="240" fill="#666" font-size="20">2</text><path stroke="#666" stroke-width="1.5" marker-end="url(#arrow)" d="M80 340 L80 310"/><text x="90" y="330" fill="#666" font-size="20">12</text><path stroke="#666" stroke-width="1.5" marker-end="url(#arrow)" d="M460 130 L460 160"/><text x="470" y="150" fill="#666" font-size="20">4</text><path stroke="#666" stroke-width="1.5" marker-end="url(#arrow)" d="M460 220 L460 250"/><text x="470" y="240" fill="#666" font-size="20">5</text><path stroke="#666" stroke-width="1.5" marker-end="url(#arrow)" d="M760 130 L760 160"/><text x="770" y="150" fill="#666" font-size="20">7</text><path stroke="#666" stroke-width="1.5" marker-end="url(#arrow)" d="M760 220 L760 250"/><text x="770" y="240" fill="#666" font-size="20">8</text><path stroke="#666" stroke-width="1.5" marker-end="url(#arrow)" d="M760 310 L760 340"/><text x="770" y="330" fill="#666" font-size="20">9</text><path fill="none" stroke="#666" stroke-width="1.5" marker-end="url(#arrow)" d="M280 290 Q300 290, 340 110"/><text x="304" y="270" fill="#666" font-size="20">3</text><path fill="none" stroke="#666" stroke-width="1.5" marker-end="url(#arrow)" d="M580 290 Q600 290, 620 110"/><text x="605" y="245" fill="#666" font-size="20">6</text><path stroke="#666" stroke-width="1.5" marker-end="url(#arrow)" d="M640 370 L580 370"/><text x="599" y="390" fill="#666" font-size="20">10</text><path stroke="#666" stroke-width="1.5" marker-end="url(#arrow)" d="M340 370 L280 370"/><text x="299" y="390" fill="#666" font-size="20">11</text></svg>